<!-- <svg width="46" height="46" viewBox="0 0 46 46" fill="none" xmlns="http://www.w3.org/2000/svg">
<path d="M31.984 23C31.984 23.992 31.18 24.797 30.188 24.797H24.797V30.188C24.797 31.18 23.992 31.984 23 31.984C22.008 31.984 21.203 31.18 21.203 30.188V24.797H15.812C14.82 24.797 14.016 23.992 14.016 23C14.016 22.008 14.82 21.203 15.812 21.203H21.203V15.812C21.203 14.82 22.008 14.016 23 14.016C23.992 14.016 24.797 14.82 24.797 15.812V21.203H30.188C31.18 21.203 31.984 22.008 31.984 23Z" fill="#1C768F"/>
<path d="M31.589 5.5523L29.264 4.5895C28.348 4.2097 27.912 3.1586 28.292 2.2418C28.672 1.3249 29.723 0.889205 30.64 1.2694L32.964 2.2321C33.881 2.612 34.316 3.66311 33.936 4.57991C33.558 5.49371 32.508 5.9331 31.589 5.5523Z" fill="#1C768F"/>
<path d="M23 0C23.992 0 24.797 0.804498 24.797 1.7969C24.797 2.7893 23.992 3.5938 23 3.5938C12.275 3.5938 3.594 12.273 3.594 23C3.594 33.725 12.273 42.406 23 42.406C33.725 42.406 42.406 33.727 42.406 23C42.406 22.008 43.211 21.203 44.203 21.203C45.196 21.203 46 22.008 46 23C46 35.711 35.713 46 23 46C10.289 46 0 35.713 0 23C0 10.289 10.287 0 23 0Z" fill="#1C768F"/>
<path d="M37.612 10.167L35.833 8.38804C35.131 7.68664 35.131 6.54884 35.833 5.84724C36.535 5.14554 37.672 5.14544 38.374 5.84724L40.153 7.62604C40.855 8.32804 40.855 9.46604 40.153 10.167C39.451 10.869 38.313 10.869 37.612 10.167Z" fill="#1C768F"/>
<path d="M43.758 17.7079C42.839 18.0889 41.789 17.6499 41.41 16.7359L40.448 14.4119C40.068 13.4949 40.503 12.444 41.42 12.064C42.337 11.684 43.388 12.119 43.768 13.036L44.731 15.3599C45.11 16.2769 44.675 17.3279 43.758 17.7079Z" fill="#1C768F"/>
</svg> -->

<svg width="158" height="158" viewBox="0 0 158 158" fill="none" xmlns="http://www.w3.org/2000/svg">
<g filter="url(#filter0_d)">
<path d="M79 150C120.421 150 154 116.421 154 75C154 33.5786 120.421 0 79 0C37.5786 0 4 33.5786 4 75C4 116.421 37.5786 150 79 150Z" fill="#FBF3F2"/>
<path d="M79 148C119.317 148 152 115.317 152 75C152 34.6832 119.317 2 79 2C38.6832 2 6 34.6832 6 75C6 115.317 38.6832 148 79 148Z" stroke="#FA991C" stroke-width="4"/>
</g>
<path d="M125.984 104C125.984 104.992 125.18 105.797 124.188 105.797H118.797V111.188C118.797 112.18 117.992 112.984 117 112.984C116.008 112.984 115.203 112.18 115.203 111.188V105.797H109.812C108.82 105.797 108.016 104.992 108.016 104C108.016 103.008 108.82 102.203 109.812 102.203H115.203V96.812C115.203 95.82 116.008 95.016 117 95.016C117.992 95.016 118.797 95.82 118.797 96.812V102.203H124.188C125.18 102.203 125.984 103.008 125.984 104Z" fill="#1C768F"/>
<path d="M125.589 86.5523L123.264 85.5895C122.348 85.2097 121.912 84.1586 122.292 83.2418C122.672 82.3249 123.723 81.8892 124.64 82.2694L126.964 83.2321C127.881 83.612 128.316 84.6631 127.936 85.5799C127.558 86.4937 126.508 86.9331 125.589 86.5523Z" fill="#1C768F"/>
<path d="M117 81C117.992 81 118.797 81.8045 118.797 82.7969C118.797 83.7893 117.992 84.5938 117 84.5938C106.275 84.5938 97.594 93.273 97.594 104C97.594 114.725 106.273 123.406 117 123.406C127.725 123.406 136.406 114.727 136.406 104C136.406 103.008 137.211 102.203 138.203 102.203C139.196 102.203 140 103.008 140 104C140 116.711 129.713 127 117 127C104.289 127 94 116.713 94 104C94 91.289 104.287 81 117 81Z" fill="#1C768F"/>
<path d="M131.612 91.167L129.833 89.388C129.131 88.6866 129.131 87.5488 129.833 86.8472C130.535 86.1455 131.672 86.1454 132.374 86.8472L134.153 88.626C134.855 89.328 134.855 90.466 134.153 91.167C133.451 91.869 132.313 91.869 131.612 91.167Z" fill="#1C768F"/>
<path d="M137.758 98.7079C136.839 99.0889 135.789 98.6499 135.41 97.7359L134.448 95.4119C134.068 94.4949 134.503 93.444 135.42 93.064C136.337 92.684 137.388 93.119 137.768 94.036L138.731 96.3599C139.11 97.2769 138.675 98.3279 137.758 98.7079Z" fill="#1C768F"/>
<defs>
<filter id="filter0_d" x="0" y="0" width="158" height="158" filterUnits="userSpaceOnUse" color-interpolation-filters="sRGB">
<feFlood flood-opacity="0" result="BackgroundImageFix"/>
<feColorMatrix in="SourceAlpha" type="matrix" values="0 0 0 0 0 0 0 0 0 0 0 0 0 0 0 0 0 0 127 0"/>
<feOffset dy="4"/>
<feGaussianBlur stdDeviation="2"/>
<feColorMatrix type="matrix" values="0 0 0 0 0 0 0 0 0 0 0 0 0 0 0 0 0 0 0.25 0"/>
<feBlend mode="normal" in2="BackgroundImageFix" result="effect1_dropShadow"/>
<feBlend mode="normal" in="SourceGraphic" in2="effect1_dropShadow" result="shape"/>
</filter>
</defs>
</svg>
