<svg width="36" height="36" viewBox="0 0 36 36" fill="none" xmlns="http://www.w3.org/2000/svg">
<path d="M18.0001 34.65C8.8192 34.65 1.3501 27.1809 1.3501 18C1.3501 8.81911 8.8192 1.35001 18.0001 1.35001C27.181 1.35001 34.6501 8.81911 34.6501 18C34.6501 27.1809 27.181 34.65 18.0001 34.65Z" fill="#F78F8F"/>
<path d="M17.9999 1.79999C26.9324 1.79999 34.1999 9.06749 34.1999 18C34.1999 26.9325 26.9324 34.2 17.9999 34.2C9.0674 34.2 1.7999 26.9325 1.7999 18C1.7999 9.06749 9.0674 1.79999 17.9999 1.79999ZM17.9999 0.899994C8.5562 0.899994 0.899902 8.55629 0.899902 18C0.899902 27.4437 8.5562 35.1 17.9999 35.1C27.4436 35.1 35.0999 27.4437 35.0999 18C35.0999 8.55629 27.4436 0.899994 17.9999 0.899994Z" fill="#C74343"/>
<path d="M12.5906 25.3185L10.6814 23.4092L23.4096 10.6815L25.3187 12.5908L12.5906 25.3185Z" fill="white"/>
<path d="M10.6814 12.5908L12.5906 10.6815L25.3187 23.4092L23.4095 25.3185L10.6814 12.5908Z" fill="white"/>
</svg>
