<svg width="60" height="60" viewBox="0 0 60 60" fill="none" xmlns="http://www.w3.org/2000/svg">
<path d="M41.7188 30C41.7188 31.2945 40.6695 32.3438 39.375 32.3438H32.3438V39.375C32.3438 40.6695 31.2945 41.7188 30 41.7188C28.7056 41.7188 27.6562 40.6695 27.6562 39.375V32.3438H20.625C19.3306 32.3438 18.2812 31.2945 18.2812 30C18.2812 28.7056 19.3306 27.6562 20.625 27.6562H27.6562V20.625C27.6562 19.3306 28.7056 18.2812 30 18.2812C31.2945 18.2812 32.3438 19.3306 32.3438 20.625V27.6562H39.375C40.6695 27.6562 41.7188 28.7056 41.7188 30Z" fill="#FA991C"/>
<path d="M41.2024 7.24212L38.171 5.98634C36.9751 5.49088 36.4071 4.1199 36.9026 2.924C37.398 1.72809 38.7689 1.15986 39.965 1.65568L42.9964 2.91146C44.1922 3.40693 44.7603 4.77791 44.2647 5.9738C43.7709 7.16571 42.4021 7.73876 41.2024 7.24212Z" fill="#FA991C"/>
<path d="M30 0C31.2944 0 32.3438 1.0493 32.3438 2.34376C32.3438 3.6382 31.2944 4.6875 30 4.6875C16.0103 4.6875 4.6875 16.0088 4.6875 30C4.6875 43.9897 16.0088 55.3124 30 55.3124C43.9897 55.3124 55.3124 43.9912 55.3124 30C55.3124 28.7056 56.3618 27.6562 57.6562 27.6562C58.9507 27.6562 60 28.7056 60 30C60 46.5801 46.5824 60 30 60C13.4199 60 0 46.5824 0 30C0 13.4199 13.4176 0 30 0Z" fill="#FA991C"/>
<path d="M49.0587 13.2616L46.7384 10.9414C45.8232 10.0261 45.8232 8.542 46.7384 7.62678C47.6538 6.71154 49.1379 6.71143 50.0532 7.62678L52.3734 9.94696C53.2888 10.8623 53.2888 12.3464 52.3734 13.2616C51.4582 14.1767 49.974 14.177 49.0587 13.2616Z" fill="#FA991C"/>
<path d="M57.0759 23.0975C55.8774 23.5939 54.5079 23.0223 54.0135 21.8292L52.7578 18.7975C52.2623 17.6016 52.8304 16.2307 54.026 15.7352C55.2223 15.2398 56.593 15.8077 57.0884 17.0035L58.3442 20.0351C58.8397 21.2311 58.2717 22.6021 57.0759 23.0975Z" fill="#FA991C"/>
</svg>
