<svg width="85" height="85" viewBox="0 0 85 85" fill="none" xmlns="http://www.w3.org/2000/svg">
<g clip-path="url(#clip0)">
<path fill-rule="evenodd" clip-rule="evenodd" d="M72.4834 44.7434C74.5645 43.8998 74.5644 40.9534 72.4834 40.1097L31.2855 23.4078C29.1197 22.5297 27.0406 24.839 28.1404 26.9011L34.5382 38.8971C34.7163 39.2311 34.8675 39.575 34.9916 39.9261L53.0324 39.9262C54.4131 39.9261 55.5324 41.0455 55.5324 42.4261C55.5323 43.8068 54.4131 44.9261 53.0324 44.9261L34.9918 44.9263C34.8676 45.2775 34.7164 45.6217 34.5382 45.9558L28.1403 57.9519C27.0406 60.014 29.1197 62.3232 31.2856 61.4453L72.4834 44.7434ZM74.3619 35.476C80.6048 38.0069 80.6048 46.8461 74.3619 49.377L33.164 66.079C26.6665 68.7132 20.4292 61.7853 23.7287 55.599L30.1264 43.6031C30.3225 43.2353 30.4205 42.8313 30.4205 42.4264C30.4206 42.0216 30.3225 41.6178 30.1264 41.2501L23.7285 29.2542C20.4292 23.0677 26.6665 16.14 33.164 18.7742L74.3619 35.476Z" fill="#FA991C"/>
</g>
<defs>
<clipPath id="clip0">
<rect width="60" height="60" fill="white" transform="translate(42.4263) rotate(45)"/>
</clipPath>
</defs>
</svg>
