<svg width="20" height="20" viewBox="0 0 20 20" fill="none" xmlns="http://www.w3.org/2000/svg">
<path d="M10.4578 9.99774L19.9053 0.550223C20.0312 0.42428 20.0312 0.220126 19.9053 0.0941831C19.7794 -0.0317199 19.5752 -0.0317199 19.4493 0.0941831L10.0018 9.5417L0.554253 0.0941831C0.426133 -0.0295429 0.221979 -0.0259952 0.0982129 0.102125C-0.0224894 0.227101 -0.0224894 0.425248 0.0982129 0.550223L9.54573 9.99774L0.0982129 19.4453C-0.0299073 19.569 -0.033455 19.7732 0.0903112 19.9013C0.214078 20.0294 0.418231 20.033 0.546352 19.9092C0.549053 19.9066 0.551673 19.904 0.554253 19.9013L10.0018 10.4538L19.4493 19.9013C19.5774 20.0251 19.7816 20.0215 19.9053 19.8934C20.0261 19.7684 20.0261 19.5702 19.9053 19.4453L10.4578 9.99774Z" fill="black"/>
</svg>
